<svg xmlns="http://www.w3.org/2000/svg" width="0" height="0" aria-hidden="true" focusable="false">
<defs>
  <g id="sf">
    <g fill="#e06030">
      <path d="M0,-16 C8,-24 8,-38 0,-46 C-8,-38 -8,-24 0,-16Z" transform="rotate(0)"/>
      <path d="M0,-16 C8,-24 8,-38 0,-46 C-8,-38 -8,-24 0,-16Z" transform="rotate(25.7)"/>
      <path d="M0,-16 C8,-24 8,-38 0,-46 C-8,-38 -8,-24 0,-16Z" transform="rotate(51.4)"/>
      <path d="M0,-16 C8,-24 8,-38 0,-46 C-8,-38 -8,-24 0,-16Z" transform="rotate(77.1)"/>
      <path d="M0,-16 C8,-24 8,-38 0,-46 C-8,-38 -8,-24 0,-16Z" transform="rotate(102.8)"/>
      <path d="M0,-16 C8,-24 8,-38 0,-46 C-8,-38 -8,-24 0,-16Z" transform="rotate(128.5)"/>
      <path d="M0,-16 C8,-24 8,-38 0,-46 C-8,-38 -8,-24 0,-16Z" transform="rotate(154.2)"/>
      <path d="M0,-16 C8,-24 8,-38 0,-46 C-8,-38 -8,-24 0,-16Z" transform="rotate(180)"/>
      <path d="M0,-16 C8,-24 8,-38 0,-46 C-8,-38 -8,-24 0,-16Z" transform="rotate(205.7)"/>
      <path d="M0,-16 C8,-24 8,-38 0,-46 C-8,-38 -8,-24 0,-16Z" transform="rotate(231.4)"/>
      <path d="M0,-16 C8,-24 8,-38 0,-46 C-8,-38 -8,-24 0,-16Z" transform="rotate(257.1)"/>
      <path d="M0,-16 C8,-24 8,-38 0,-46 C-8,-38 -8,-24 0,-16Z" transform="rotate(282.8)"/>
      <path d="M0,-16 C8,-24 8,-38 0,-46 C-8,-38 -8,-24 0,-16Z" transform="rotate(308.5)"/>
      <path d="M0,-16 C8,-24 8,-38 0,-46 C-8,-38 -8,-24 0,-16Z" transform="rotate(334.2)"/>
    </g>
    <circle r="16" fill="#5a2c10"/>
    <circle r="11" fill="#3e1a08"/>
    <circle r="2.2" cx="0"  cy="-5.5" fill="#6a3818" opacity=".7"/>
    <circle r="2.2" cx="5"  cy="2"    fill="#6a3818" opacity=".7"/>
    <circle r="2.2" cx="-5" cy="2"    fill="#6a3818" opacity=".7"/>
    <circle r="2.2" cx="2"  cy="-10"  fill="#6a3818" opacity=".5"/>
    <circle r="2.2" cx="-2" cy="-10"  fill="#6a3818" opacity=".5"/>
    <circle r="2.2" cx="8"  cy="-5"   fill="#6a3818" opacity=".5"/>
    <circle r="2.2" cx="-8" cy="-5"   fill="#6a3818" opacity=".5"/>
  </g>
  <path id="lf-b" d="M0,0 C12,-10 22,-8 26,-2 C30,6 24,20 10,24 C-4,28 -16,18 -14,8 C-12,0 -6,-2 0,0Z" fill="#7a8840"/>
  <path id="lf-n" d="M0,0 C6,-6 8,-20 0,-32 C-8,-20 -6,-6 0,0Z" fill="#7a8840"/>
  <g id="lf-v">
    <path d="M0,0 C10,-8 18,-6 20,2 C18,12 8,18 0,16 C-8,18 -18,12 -20,2 C-18,-6 -10,-8 0,0Z" fill="#7a8840"/>
    <path d="M0,0 L0,16" stroke="#5a6428" stroke-width="1" fill="none"/>
    <path d="M0,6 L6,10" stroke="#5a6428" stroke-width=".7" fill="none"/>
    <path d="M0,6 L-6,10" stroke="#5a6428" stroke-width=".7" fill="none"/>
  </g>
</defs>
</svg>
