<svg xmlns="http://www.w3.org/2000/svg" viewBox="-55 -55 110 110">
  <g fill="#e06030">
    <path d="M0,-16 C8,-24 8,-38 0,-46 C-8,-38 -8,-24 0,-16Z" transform="rotate(0)"/>
    <path d="M0,-16 C8,-24 8,-38 0,-46 C-8,-38 -8,-24 0,-16Z" transform="rotate(25.7)"/>
    <path d="M0,-16 C8,-24 8,-38 0,-46 C-8,-38 -8,-24 0,-16Z" transform="rotate(51.4)"/>
    <path d="M0,-16 C8,-24 8,-38 0,-46 C-8,-38 -8,-24 0,-16Z" transform="rotate(77.1)"/>
    <path d="M0,-16 C8,-24 8,-38 0,-46 C-8,-38 -8,-24 0,-16Z" transform="rotate(102.8)"/>
    <path d="M0,-16 C8,-24 8,-38 0,-46 C-8,-38 -8,-24 0,-16Z" transform="rotate(128.5)"/>
    <path d="M0,-16 C8,-24 8,-38 0,-46 C-8,-38 -8,-24 0,-16Z" transform="rotate(154.2)"/>
    <path d="M0,-16 C8,-24 8,-38 0,-46 C-8,-38 -8,-24 0,-16Z" transform="rotate(180)"/>
    <path d="M0,-16 C8,-24 8,-38 0,-46 C-8,-38 -8,-24 0,-16Z" transform="rotate(205.7)"/>
    <path d="M0,-16 C8,-24 8,-38 0,-46 C-8,-38 -8,-24 0,-16Z" transform="rotate(231.4)"/>
    <path d="M0,-16 C8,-24 8,-38 0,-46 C-8,-38 -8,-24 0,-16Z" transform="rotate(257.1)"/>
    <path d="M0,-16 C8,-24 8,-38 0,-46 C-8,-38 -8,-24 0,-16Z" transform="rotate(282.8)"/>
    <path d="M0,-16 C8,-24 8,-38 0,-46 C-8,-38 -8,-24 0,-16Z" transform="rotate(308.5)"/>
    <path d="M0,-16 C8,-24 8,-38 0,-46 C-8,-38 -8,-24 0,-16Z" transform="rotate(334.2)"/>
  </g>
  <circle r="16" fill="#5a2c10"/>
  <circle r="11" fill="#3e1a08"/>
</svg>
